<?xml version="1.0" standalone="no"?>
<!DOCTYPE svg PUBLIC "-//W3C//DTD SVG 20010904//EN"
 "http://www.w3.org/TR/2001/REC-SVG-20010904/DTD/svg10.dtd">
<svg version="1.0" xmlns="http://www.w3.org/2000/svg"
 width="500.000000pt" height="500.000000pt" viewBox="0 0 500.000000 500.000000"
 preserveAspectRatio="xMidYMid meet">
<metadata>
Created by potrace 1.14, written by Peter Selinger 2001-2017
</metadata>
<g transform="translate(0.000000,500.000000) scale(0.100000,-0.100000)"
fill="#000000" stroke="none">
<path d="M2360 4911 c-62 -19 -137 -68 -287 -184 -39 -31 -38 2 2 76 l35 65
-37 -10 c-21 -6 -58 -24 -83 -41 -48 -32 -151 -115 -161 -131 -13 -17 -29 5
-29 40 0 19 -4 34 -9 34 -10 0 -51 -65 -95 -152 -16 -32 -33 -58 -38 -58 -11
0 -10 43 2 76 17 43 4 39 -16 -5 -20 -45 -25 -48 -44 -26 -20 25 -28 18 -36
-31 -3 -25 -13 -48 -20 -51 -8 -3 -39 7 -69 21 -31 14 -58 26 -60 26 -10 0 -4
-52 9 -85 9 -21 11 -37 5 -40 -5 -4 -9 -1 -9 4 0 6 -4 11 -10 11 -16 0 -12
-14 15 -54 14 -21 23 -42 19 -48 -3 -5 -29 -9 -58 -8 -97 4 -108 2 -97 -19 13
-23 3 -32 -55 -50 -42 -13 -134 -84 -123 -95 3 -3 19 -6 37 -8 18 -1 32 -7 32
-13 0 -5 -34 -46 -75 -89 -91 -96 -139 -164 -165 -234 -22 -57 -14 -69 13 -22
10 17 23 30 29 30 5 0 -3 -21 -18 -47 -35 -61 -40 -71 -58 -113 -39 -92 -45
-114 -40 -134 3 -12 -2 -55 -10 -96 -20 -93 -20 -87 4 -93 20 -5 20 -11 14
-159 -6 -152 7 -398 41 -758 8 -85 20 -229 26 -318 13 -177 12 -181 -38 -182
-34 0 -88 -37 -116 -78 -33 -48 -47 -102 -47 -182 1 -150 56 -293 150 -390 70
-71 133 -101 227 -108 l72 -5 21 -71 c50 -165 132 -302 249 -414 118 -114 253
-193 524 -307 154 -65 213 -102 223 -141 11 -41 -14 -123 -56 -186 l-38 -58
62 0 c62 0 63 0 93 42 41 59 60 100 68 148 4 25 13 43 23 46 10 3 25 10 35 15
11 6 22 8 25 5 3 -3 0 -6 -6 -6 -6 0 -9 -6 -6 -14 5 -12 9 -12 25 2 10 9 19
22 19 29 0 7 4 13 9 13 13 0 20 -37 9 -48 -14 -14 8 -25 38 -18 13 4 24 13 24
21 0 19 24 19 39 1 7 -8 13 -27 14 -42 1 -15 8 -29 16 -32 9 -3 12 5 9 29 -2
25 1 35 14 37 12 2 15 -2 11 -17 -6 -22 3 -26 26 -12 8 6 12 19 9 35 -5 26 -5
26 13 10 11 -9 19 -28 19 -41 0 -13 4 -31 9 -41 5 -9 17 -34 27 -54 10 -20 32
-53 48 -73 30 -35 33 -36 90 -33 57 3 59 4 42 21 -10 9 -33 47 -53 84 -29 57
-34 74 -28 108 11 73 45 94 386 244 329 145 529 301 621 486 37 73 72 163 93
241 2 6 29 11 62 11 148 2 290 132 349 320 20 65 29 227 15 279 -13 48 -60
116 -97 140 -14 10 -42 20 -62 23 l-37 6 3 410 c3 310 0 450 -12 575 -8 91
-18 240 -22 333 -7 171 -4 186 30 152 21 -22 27 -19 16 9 -4 13 -16 66 -26
117 -19 108 -47 190 -110 327 -93 202 -124 253 -206 338 -42 44 -58 68 -54 81
8 26 -81 134 -155 187 -33 24 -96 66 -140 92 -44 27 -75 50 -70 52 26 9 -69
64 -185 108 -76 28 -320 89 -394 98 -108 13 -122 17 -109 32 7 8 9 17 6 20 -8
8 -145 -20 -247 -52 -124 -37 -130 -38 -130 -22 0 8 11 29 25 48 37 50 32 58
-25 41z m60 -1056 c0 -8 3 -15 8 -17 8 -4 52 -65 52 -73 0 -15 -42 19 -65 53
-29 42 -35 83 -10 62 8 -7 15 -18 15 -25z m230 -87 c0 -17 -31 6 -50 37 -35
57 -23 73 15 19 19 -27 35 -52 35 -56z m238 20 c64 -60 74 -76 33 -52 -38 22
-78 60 -93 87 -15 29 3 18 60 -35z m800 -68 c41 -68 42 -100 1 -40 -47 71 -63
103 -47 98 7 -2 28 -29 46 -58z m142 -109 c-1 -76 -17 -47 -25 45 -7 67 -6 68
9 40 10 -17 16 -51 16 -85z m-2744 -107 c-3 -25 -13 -55 -21 -67 -15 -21 -15
-21 -15 6 0 25 30 107 39 107 2 0 1 -21 -3 -46z m125 -16 c-6 -17 -11 -43 -12
-57 0 -23 -1 -24 -9 -6 -10 25 -1 97 14 107 16 11 19 -8 7 -44z m1900 -73
c-14 -82 -14 -85 8 -85 18 0 108 82 143 131 17 24 17 23 18 -31 1 -82 12 -93
52 -49 18 20 38 44 43 54 10 16 12 17 27 1 9 -9 21 -16 26 -16 13 0 137 -132
193 -205 107 -141 167 -324 215 -660 26 -184 32 -240 25 -246 -3 -4 -33 -3
-66 2 -109 16 -388 29 -495 23 -113 -6 -251 -28 -315 -49 -48 -16 -149 -67
-153 -77 -9 -20 -82 -28 -153 -18 -44 7 -122 8 -191 4 -110 -6 -119 -5 -153
16 -58 36 -129 70 -145 70 -9 0 -20 4 -25 9 -21 20 -169 35 -380 38 -180 3
-247 0 -370 -16 -82 -11 -163 -24 -178 -27 l-29 -7 7 79 c5 67 17 162 39 324
18 136 56 338 80 423 38 137 81 209 197 330 l77 80 48 -17 c26 -9 79 -16 119
-16 47 0 78 -5 91 -15 22 -16 74 -20 74 -5 0 6 -6 10 -14 10 -8 0 -17 7 -20
16 -5 13 -2 14 11 8 16 -7 64 -8 126 -3 12 1 80 -10 151 -25 97 -20 151 -26
219 -24 87 3 89 3 61 18 -16 8 -36 21 -44 29 -12 12 -10 13 20 7 19 -3 69 -11
110 -17 41 -5 79 -14 85 -18 5 -5 22 -11 37 -15 24 -6 73 -62 91 -106 4 -8 4
9 1 38 -3 28 -4 52 -1 52 2 0 17 -12 32 -26 27 -25 29 -25 36 -8 3 11 4 24 2
30 -2 7 0 15 5 18 5 3 17 -11 28 -31 11 -20 24 -38 30 -40 6 -2 18 18 26 44
23 72 37 66 40 -19 l3 -73 41 41 c22 22 54 69 70 104 26 57 29 61 32 36 2 -16
-1 -57 -7 -91z m-1116 -1156 c167 -22 267 -81 319 -189 18 -39 21 -62 20 -165
0 -86 -5 -134 -17 -170 -60 -173 -171 -293 -303 -325 -314 -76 -601 14 -690
217 -14 32 -30 67 -35 78 -11 25 -39 187 -39 228 0 83 63 207 132 259 51 39
167 69 313 82 54 5 202 -3 300 -15z m1615 0 c70 -13 140 -38 140 -50 0 -4 9
-11 20 -14 29 -9 85 -98 106 -168 16 -51 17 -68 6 -152 -26 -207 -93 -327
-226 -404 -59 -34 -103 -48 -210 -66 -86 -15 -103 -15 -207 0 -109 15 -125 19
-186 48 -29 13 -133 112 -133 127 0 5 -6 15 -12 22 -17 18 -43 73 -64 133 -25
75 -25 278 0 325 64 120 137 160 366 200 118 21 290 21 400 -1z m-961 -228
c43 -22 61 -57 92 -176 24 -93 82 -244 115 -297 100 -159 315 -244 554 -218
86 10 161 25 187 38 10 6 36 18 58 28 22 11 46 24 54 29 20 14 113 106 132
131 24 32 76 144 94 204 9 30 21 72 27 93 6 20 12 36 14 35 1 -2 -1 -77 -5
-168 -9 -212 -5 -222 44 -105 7 17 17 41 23 55 6 14 12 48 15 75 2 28 12 63
21 78 16 23 25 27 68 27 62 0 93 -20 120 -78 17 -38 20 -60 16 -131 -3 -74 -9
-97 -41 -163 -33 -69 -123 -178 -147 -178 -5 0 -15 -7 -23 -15 -8 -8 -45 -17
-81 -21 -55 -6 -70 -4 -85 10 -17 16 -19 16 -25 -1 -7 -17 -8 -17 -17 0 -13
23 -24 22 -49 -5 -11 -12 -23 -18 -27 -14 -4 4 0 12 10 17 21 12 23 44 2 35
-8 -3 -21 2 -30 10 -16 17 -18 12 -17 -41 1 -17 0 -17 -4 -2 -3 10 -15 17 -30
17 -20 0 -24 -4 -21 -22 2 -13 2 -17 0 -10 -8 21 -24 13 -34 -18 -6 -16 -14
-30 -18 -30 -4 0 -18 -25 -31 -56 -29 -71 -85 -128 -156 -161 -48 -22 -66 -25
-125 -21 -133 10 -251 95 -285 205 -10 35 -25 65 -31 67 -7 3 -13 1 -13 -4 0
-6 -5 -10 -11 -10 -5 0 -7 5 -4 11 4 6 -2 13 -14 16 -15 4 -21 13 -21 34 0 21
-5 29 -17 29 -12 0 -18 8 -19 26 -2 32 -9 38 -31 30 -19 -8 -29 -5 -26 6 1 3
-11 11 -28 17 -31 11 -74 6 -95 -11 -8 -5 -13 -1 -17 13 -3 11 -10 18 -16 15
-5 -4 -69 -2 -142 4 -103 8 -134 8 -140 -2 -5 -8 -14 -9 -31 -2 -16 7 -45 5
-98 -6 -69 -14 -76 -18 -89 -47 -9 -21 -22 -33 -33 -33 -11 0 -17 -4 -13 -10
3 -5 12 -7 20 -3 17 6 21 -22 5 -32 -5 -3 -10 -15 -10 -26 0 -18 -24 -27 -33
-11 -2 4 -2 2 -1 -5 2 -6 -3 -14 -11 -17 -8 -3 -17 -21 -21 -41 -3 -19 -10
-38 -15 -41 -5 -3 -9 -15 -9 -27 0 -21 -54 -76 -103 -103 -79 -45 -111 -54
-189 -54 -72 0 -83 3 -131 33 -62 40 -105 91 -130 155 -10 26 -25 51 -33 55
-8 4 -14 17 -14 28 0 17 -3 18 -21 8 -20 -10 -21 -9 -16 10 4 16 1 21 -13 21
-11 0 -31 12 -47 27 -18 19 -25 22 -20 10 6 -15 2 -18 -20 -15 -20 2 -29 -2
-31 -14 -2 -11 3 -18 12 -18 25 0 27 -17 2 -22 -17 -3 -23 -1 -19 8 6 16 -14
27 -35 18 -9 -4 -25 -6 -34 -5 -10 1 -18 -1 -18 -6 0 -15 -74 -13 -134 4 -76
21 -159 96 -200 180 -16 32 -33 67 -39 78 -6 11 -13 59 -15 106 -4 71 -1 94
16 132 24 53 70 87 120 87 53 0 65 -17 143 -205 37 -91 58 -128 60 -105 3 35
-2 240 -7 290 -5 52 -4 54 10 30 8 -14 15 -34 16 -45 0 -28 35 -127 67 -189
32 -63 68 -111 112 -151 19 -16 40 -35 47 -42 14 -14 70 -44 136 -72 120 -51
406 -49 513 4 28 13 56 25 63 25 6 0 12 5 12 10 0 6 6 10 13 10 21 0 123 102
155 155 16 28 42 88 57 135 15 47 31 92 35 100 4 9 11 31 14 50 11 54 38 123
55 144 47 56 115 70 180 37z m241 -681 c0 -12 -17 -12 -45 0 -17 7 -15 9 13 9
17 1 32 -3 32 -9z m-350 -60 c21 -7 18 -8 -18 -9 -26 -1 -41 3 -37 9 7 11 19
11 55 0z m-1140 -25 c0 -8 -4 -15 -10 -15 -5 0 -7 7 -4 15 4 8 8 15 10 15 2 0
4 -7 4 -15z m2497 -37 c-3 -8 -6 -5 -6 6 -1 11 2 17 5 13 3 -3 4 -12 1 -19z
m-1037 -53 c0 -38 -88 -155 -117 -155 -7 0 -13 -3 -13 -7 0 -5 -19 -17 -42
-28 -33 -16 -62 -20 -142 -20 -137 1 -195 28 -267 125 -28 37 -44 84 -34 100
4 6 128 10 311 10 l304 0 0 -25z"/>
<path d="M1727 2613 c-54 -6 -147 -64 -214 -133 -35 -35 -76 -97 -71 -108 1
-5 30 3 63 19 33 16 68 29 78 29 10 0 26 4 35 9 23 12 193 32 272 32 57 -1
199 -20 270 -36 39 -10 81 33 71 71 -10 38 -68 76 -151 98 -65 18 -272 29
-353 19z"/>
<path d="M3085 2614 c-54 -8 -149 -35 -184 -52 -56 -28 -71 -44 -71 -79 0 -43
45 -69 93 -54 40 13 276 43 286 37 4 -3 57 -10 117 -16 60 -6 113 -15 119 -21
5 -5 18 -9 28 -9 19 0 68 -19 119 -46 36 -19 39 -18 25 14 -27 60 -128 159
-201 198 -46 23 -64 26 -176 29 -69 2 -138 1 -155 -1z"/>
<path d="M1771 2123 c-64 -23 -124 -74 -150 -129 -7 -16 -17 -37 -22 -46 -19
-37 -10 -138 17 -192 49 -98 130 -148 239 -148 101 0 174 41 227 125 28 46 32
60 32 127 1 74 -24 160 -46 160 -4 0 -8 6 -8 13 -1 19 -79 73 -133 91 -58 20
-98 19 -156 -1z m19 -143 c20 -15 25 -28 25 -64 0 -52 -21 -75 -71 -76 -70 0
-101 86 -48 135 32 30 60 31 94 5z m244 -202 c14 -23 -3 -52 -32 -56 -29 -4
-51 40 -32 63 16 20 49 16 64 -7z m-160 6 c21 -8 21 -60 0 -68 -41 -16 -74 41
-36 63 21 13 17 12 36 5z"/>
<path d="M3171 2123 c-105 -32 -191 -149 -191 -260 1 -93 61 -190 146 -233 54
-28 189 -28 242 -1 73 39 116 90 141 170 16 50 13 100 -9 161 -48 132 -193
204 -329 163z m9 -163 c45 -45 9 -130 -55 -130 -43 0 -75 32 -75 75 0 46 29
75 75 75 22 0 43 -8 55 -20z m228 -182 c20 -20 14 -55 -10 -61 -47 -13 -80 39
-40 62 23 14 36 13 50 -1z m-138 -13 c26 -32 -13 -81 -47 -59 -35 22 -23 74
17 74 10 0 23 -7 30 -15z"/>
<path d="M4099 1704 c-40 -21 -51 -39 -47 -77 l3 -35 63 39 c35 21 69 40 75
42 9 3 9 9 1 23 -14 23 -60 27 -95 8z"/>
<path d="M913 1684 c-7 -18 20 -44 44 -44 7 0 13 -3 13 -8 0 -4 20 -18 45 -32
25 -14 45 -28 45 -32 0 -5 7 -8 15 -8 36 0 -1 90 -50 120 -40 25 -103 27 -112
4z"/>
<path d="M3001 1294 c0 -11 3 -14 6 -6 3 7 2 16 -1 19 -3 4 -6 -2 -5 -13z"/>
<path d="M2558 973 c7 -3 16 -2 19 1 4 3 -2 6 -13 5 -11 0 -14 -3 -6 -6z"/>
</g>
</svg>
