<?xml version="1.0" standalone="no"?>
<!DOCTYPE svg PUBLIC "-//W3C//DTD SVG 20010904//EN"
 "http://www.w3.org/TR/2001/REC-SVG-20010904/DTD/svg10.dtd">
<svg version="1.0" xmlns="http://www.w3.org/2000/svg"
 width="334.000000pt" height="334.000000pt" viewBox="0 0 334.000000 334.000000"
 preserveAspectRatio="xMidYMid meet">
<metadata>
Created by potrace 1.14, written by Peter Selinger 2001-2017
</metadata>
<g transform="translate(0.000000,334.000000) scale(0.100000,-0.100000)"
fill="#000000" stroke="none">
<path d="M1535 3256 c-16 -7 -59 -35 -93 -60 -35 -26 -66 -45 -68 -43 -3 3 3
21 12 41 10 19 14 39 10 43 -9 10 -64 -21 -122 -69 -47 -38 -48 -39 -59 -18
-11 20 -12 20 -27 3 -9 -10 -26 -38 -39 -63 -21 -43 -23 -44 -29 -20 -4 17 -8
21 -14 12 -4 -6 -16 -12 -27 -12 -12 0 -19 -7 -19 -20 0 -28 -23 -34 -59 -16
-16 9 -33 16 -36 16 -7 0 1 -100 10 -123 6 -15 3 -18 -16 -17 -53 5 -79 0 -79
-15 0 -8 -17 -23 -38 -34 -50 -25 -68 -46 -47 -55 24 -9 19 -19 -40 -85 -61
-69 -108 -146 -76 -127 5 3 -4 -25 -19 -62 -16 -37 -34 -97 -39 -132 -14 -85
-7 -466 13 -690 30 -356 30 -340 9 -340 -36 0 -90 -48 -109 -95 -38 -102 9
-273 97 -349 39 -33 102 -56 151 -56 21 0 27 -9 46 -68 63 -195 175 -301 452
-427 79 -35 151 -72 161 -81 35 -32 13 -125 -46 -188 -21 -23 -27 -24 -55 -15
-28 10 -41 7 -133 -39 l-102 -51 168 0 169 -1 -31 26 c-39 32 -39 44 -2 44 39
0 113 81 131 144 7 26 18 47 24 47 6 1 25 3 43 5 25 3 31 1 27 -11 -5 -11 -2
-13 12 -8 11 3 23 11 27 17 6 8 10 7 14 -1 2 -7 11 -13 19 -13 9 0 13 4 9 9
-3 5 -1 12 4 15 5 4 13 2 16 -4 4 -6 14 -10 23 -9 33 3 38 -2 51 -46 19 -63
93 -145 132 -145 37 0 37 -12 -2 -44 l-31 -26 169 1 168 0 -102 51 c-92 46
-105 49 -133 39 -28 -9 -34 -8 -56 14 -56 56 -81 157 -46 188 9 8 69 39 132
67 213 95 305 150 378 229 46 48 108 157 129 225 17 56 17 56 58 56 120 1 227
126 241 282 11 112 -24 188 -96 209 l-40 12 8 106 c10 144 9 501 -2 700 -7
124 -6 162 2 157 30 -18 -4 132 -59 259 -49 116 -75 160 -135 232 -24 28 -44
54 -44 58 0 25 -70 99 -132 141 -40 26 -92 65 -115 84 -44 38 -144 74 -288
104 -200 42 -178 41 -271 17 -48 -12 -89 -19 -92 -16 -3 3 0 16 6 30 10 21 9
25 -6 25 -9 -1 -30 -7 -47 -14z m89 -677 c31 -46 30 -61 -1 -26 -19 20 -40 67
-30 67 2 0 17 -18 31 -41z m136 -42 c0 -7 -12 1 -25 16 -14 15 -25 33 -25 40
0 7 12 -1 25 -16 14 -15 25 -33 25 -40z m179 -22 c-8 -8 -59 42 -59 57 0 7 14
-2 32 -19 18 -18 30 -35 27 -38z m501 -32 c0 -7 -2 -13 -4 -13 -6 0 -46 69
-46 78 1 12 50 -52 50 -65z m78 -53 c0 -32 -1 -33 -8 -10 -4 14 -8 39 -8 55
-1 25 1 27 8 10 5 -11 8 -36 8 -55z m-1768 -61 c-11 -38 -20 -49 -20 -25 0 17
17 56 25 56 2 0 0 -14 -5 -31z m76 -25 c-4 -20 -10 -34 -13 -30 -3 3 -2 21 1
42 4 20 10 34 13 30 3 -3 2 -21 -1 -42z m379 5 c33 -4 71 -11 85 -14 22 -6 23
-5 9 7 -14 11 -9 13 35 15 28 1 76 -3 106 -9 70 -13 210 -25 210 -18 0 3 -12
13 -27 23 -28 18 -28 18 -3 13 14 -3 43 -8 65 -12 72 -9 114 -27 132 -53 l17
-26 6 24 c5 23 6 23 23 7 16 -17 18 -16 26 6 l8 23 7 -23 c10 -31 25 -28 40 9
13 30 13 31 19 8 4 -13 7 -35 7 -48 l0 -24 24 22 c13 12 32 39 42 61 17 34 39
47 29 17 -2 -7 -6 -31 -9 -54 -8 -57 9 -56 62 1 l41 44 6 -40 7 -40 32 31 33
32 40 -33 c50 -40 123 -129 150 -183 43 -84 86 -260 97 -400 2 -28 7 -68 11
-89 l8 -39 -49 7 c-124 16 -307 26 -389 21 -128 -9 -191 -23 -260 -58 -54 -28
-70 -31 -160 -32 -94 -2 -104 0 -165 30 -133 66 -329 78 -639 39 l-54 -7 7 82
c3 44 15 134 26 199 48 282 72 343 170 450 52 56 56 59 85 49 16 -5 57 -13 90
-18z m193 -790 c52 -15 113 -59 135 -96 56 -97 17 -281 -83 -381 -110 -112
-413 -102 -512 17 -63 74 -100 219 -78 303 36 136 134 182 373 173 70 -2 144
-9 165 -16z m970 -4 c67 -20 117 -72 138 -141 27 -94 -8 -240 -78 -319 -60
-69 -219 -107 -356 -85 -139 21 -219 97 -258 245 -47 174 29 291 205 316 84
12 288 2 349 -16z m-660 -145 c13 -12 34 -62 53 -123 17 -56 40 -119 50 -139
68 -135 223 -202 412 -178 176 22 287 118 330 288 7 29 16 50 20 46 3 -4 3
-49 0 -102 -7 -114 2 -115 47 -4 40 96 45 102 86 102 41 0 70 -29 85 -83 26
-97 -52 -252 -145 -287 -33 -12 -134 -11 -142 2 -3 5 -12 1 -18 -8 -8 -10 -18
-14 -26 -9 -10 6 -9 9 1 16 27 16 -1 21 -33 6 -18 -9 -37 -16 -41 -16 -5 0
-17 -16 -28 -35 -48 -90 -138 -156 -213 -156 -52 0 -148 55 -168 96 -10 19
-18 41 -18 48 0 7 -12 26 -26 41 -15 16 -24 35 -21 46 3 10 -1 20 -9 23 -8 3
-14 12 -14 20 0 20 -70 30 -210 30 -154 0 -206 -9 -214 -37 -3 -12 -5 -23 -6
-25 0 -11 -32 -62 -39 -62 -5 0 -12 -13 -16 -30 -8 -38 -60 -97 -107 -121
-106 -55 -217 -21 -263 80 -10 23 -22 41 -27 41 -4 0 -8 9 -8 21 0 15 -5 19
-15 15 -8 -3 -15 -2 -15 2 0 9 -49 32 -67 32 -7 0 -13 -4 -13 -10 0 -5 8 -10
17 -10 12 0 14 -3 7 -10 -12 -12 -47 -2 -38 11 3 5 0 9 -5 9 -6 0 -11 -4 -11
-8 0 -13 -99 -14 -136 -2 -90 30 -170 192 -144 290 15 54 42 80 84 80 41 0 46
-5 86 -102 17 -43 36 -81 42 -84 6 -4 9 24 8 77 -3 120 0 131 16 69 32 -119
109 -219 200 -259 110 -49 283 -47 385 4 107 55 140 100 195 277 30 94 61 148
84 148 3 0 16 -9 28 -20z m159 -545 c3 -25 -30 -64 -86 -101 -95 -62 -228 -29
-281 70 -27 52 -17 55 182 53 175 -2 183 -3 185 -22z"/>
<path d="M1145 1792 c-47 -17 -85 -44 -124 -88 -22 -26 -41 -50 -41 -54 0 -4
35 4 78 17 62 21 98 26 187 26 61 1 138 -3 172 -7 l62 -9 7 28 c8 33 -16 56
-80 75 -47 14 -232 23 -261 12z"/>
<path d="M2002 1790 c-24 -5 -60 -17 -80 -27 -30 -15 -38 -24 -40 -52 l-3 -34
68 9 c129 17 270 9 356 -19 42 -14 77 -22 77 -19 0 17 -71 94 -109 118 -40 25
-55 29 -135 31 -50 1 -111 -2 -134 -7z"/>
<path d="M1186 1480 c-61 -19 -116 -97 -116 -164 1 -47 33 -110 71 -137 28
-20 46 -24 101 -24 75 0 105 16 146 76 32 46 28 138 -8 187 -43 58 -121 83
-194 62z m15 -90 c23 -13 26 -62 5 -79 -46 -38 -111 25 -71 69 20 22 37 25 66
10z m157 -142 c-4 -27 -33 -36 -42 -13 -8 22 1 35 25 35 15 0 20 -6 17 -22z
m-88 -2 c0 -22 -24 -38 -38 -24 -20 20 -14 38 13 38 15 0 25 -6 25 -14z"/>
<path d="M2045 1471 c-59 -27 -89 -73 -93 -146 -3 -50 0 -66 20 -94 45 -66
110 -92 190 -77 66 12 128 92 128 164 0 68 -56 144 -121 162 -49 14 -79 12
-124 -9z m181 -96 c24 -36 6 -75 -34 -75 -35 0 -52 16 -52 52 0 49 59 65 86
23z m-182 -114 c10 -16 -6 -42 -23 -39 -9 2 -17 13 -19 26 -3 16 2 22 17 22
11 0 22 -4 25 -9z m96 -15 c0 -24 -26 -38 -40 -22 -6 9 -9 20 -5 26 9 15 45
12 45 -4z"/>
<path d="M637 1204 c-12 -12 -8 -34 7 -34 7 0 30 -11 50 -25 44 -30 56 -31 49
-6 -10 39 -85 85 -106 65z"/>
<path d="M2673 1194 c-18 -9 -36 -28 -42 -45 -12 -36 -3 -36 45 -4 20 14 43
25 51 25 19 0 12 34 -7 37 -8 2 -29 -4 -47 -13z"/>
</g>
</svg>
